<svg xmlns="http://www.w3.org/2000/svg" version="1.1" width="500" height="500"> <path d="M213 308 L208 321 Z" /> <path d="M207 318 L212 305 L212 305 <path d="M207 318 L208 317 L213 304 Z" /> L213 304 Z" /> L208 317 L210 318 Z" /> <path d="M215 305 <path d="M215 305 L210 318 Z" /> <path d="M212 322 L217 308 L208 321 Z" /> L194 331 L194 328 Z" /> <path d="M207 318 <path d="M207 318 L194 328 Z" /> <path d="M194 327 L208 317 L208 317 <path d="M194 327 L196 329 L210 318 Z" /> L210 318 Z" /> L196 329 L197 333 Z" /> <path d="M212 322 L194 331 <path d="M174 338 L174 335 L194 328 Z" /> L194 328 Z" /> L174 335 L174 334 Z" /> <path d="M194 327 <path d="M194 327 L174 334 Z" /> <path d="M175 336 L196 329 L196 329 <path d="M175 336 L176 340 L197 333 Z" /> <path d="M174 338 L150 341 Z" /> <path d="M150 337 L174 335 L174 335 <path d="M150 337 L150 337 L174 334 Z" /> L174 334 Z" /> L150 337 L150 339 Z" /> <path d="M175 336 <path d="M175 336 L150 339 Z" /> <path d="M150 343 L176 340 L150 341 Z" /> L123 338 L124 335 Z" /> <path d="M150 337 <path d="M150 337 L124 335 Z" /> <path d="M125 334 L150 337 L150 337 <path d="M125 334 L124 336 L150 339 Z" /> L150 339 Z" /> L124 336 L123 340 Z" /> <path d="M150 343 L123 338 <path d="M103 331 L105 328 L124 335 Z" /> L124 335 Z" /> L105 328 L104 327 Z" /> <path d="M125 334 <path d="M125 334 L104 327 Z" /> <path d="M103 329 L124 336 L124 336 <path d="M103 329 L102 333 L123 340 Z" /> <path d="M103 331 L91 321 Z" /> <path d="M92 318 L105 328 L105 328 <path d="M92 318 L91 317 L104 327 Z" /> L104 327 Z" /> L91 317 L89 318 Z" /> <path d="M103 329 <path d="M103 329 L89 318 Z" /> <path d="M87 322 L102 333 L91 321 Z" /> L87 308 L87 305 Z" /> <path d="M92 318 <path d="M92 318 L87 305 Z" /> <path d="M86 304 L91 317 L91 317 <path d="M86 304 L84 305 L89 318 Z" /> L89 318 Z" /> L84 305 L82 308 Z" /> <path d="M87 322 L87 308 <path d="M91 295 L92 292 L87 305 Z" /> L87 305 Z" /> L92 292 L91 291 Z" /> <path d="M86 304 <path d="M86 304 L91 291 Z" /> <path d="M89 291 L84 305 L84 305 <path d="M89 291 L87 294 L82 308 Z" /> <path d="M91 295 L105 284 Z" /> <path d="M105 282 L92 292 L92 292 <path d="M105 282 L105 280 L91 291 Z" /> L91 291 Z" /> L105 280 L103 280 Z" /> <path d="M89 291 <path d="M89 291 L103 280 Z" /> <path d="M102 282 L87 294 L105 284 Z" /> L125 277 L125 275 Z" /> <path d="M105 282 <path d="M105 282 L125 275 Z" /> <path d="M125 273 L105 280 L105 280 <path d="M125 273 L124 273 L103 280 Z" /> L103 280 Z" /> L124 273 L123 275 Z" /> <path d="M102 282 L125 277 <path d="M150 275 L150 272 L125 275 Z" /> L125 275 Z" /> L150 272 L150 271 Z" /> <path d="M125 273 <path d="M125 273 L150 271 Z" /> <path d="M150 271 L124 273 L124 273 <path d="M150 271 L150 272 L123 275 Z" /> <path d="M150 275 L174 277 Z" /> <path d="M174 275 L150 272 L150 272 <path d="M174 275 L174 273 L150 271 Z" /> L150 271 Z" /> L174 273 L175 273 Z" /> <path d="M150 271 <path d="M150 271 L175 273 Z" /> <path d="M176 275 L150 272 L174 277 Z" /> L194 284 L194 282 Z" /> <path d="M174 275 <path d="M174 275 L194 282 Z" /> <path d="M194 280 L174 273 L174 273 <path d="M194 280 L196 280 L175 273 Z" /> L175 273 Z" /> L196 280 L197 282 Z" /> <path d="M176 275 L194 284 <path d="M208 295 L207 292 L194 282 Z" /> L194 282 Z" /> L207 292 L208 291 Z" /> <path d="M194 280 <path d="M194 280 L208 291 Z" /> <path d="M210 291 L196 280 L196 280 <path d="M210 291 L212 294 L197 282 Z" /> <path d="M208 295 <path d="M213 308 L212 305 L207 292 L207 292 L212 305 L213 304 Z" /> L208 291 Z" /> L208 291 Z" /> L213 304 Z" /> <path d="M215 305 <path d="M210 291 <path d="M210 291 <path d="M215 305 L217 308 L212 294 L217 308 <path d="M212 322 <path d="M219 338 L225 323 Z" /> L225 323 Z" /> <path d="M219 338 L226 355 <path d="M232 337 <path d="M232 337 L226 355 L231 370 Z" /> L238 352 L238 352 L231 370 Z" /> <path d="M233 384 L240 365 Z" /> <path d="M212 322 L197 333 Z" /> L203 351 <path d="M219 338 <path d="M219 338 L203 351 L208 368 Z" /> L226 355 L226 355 L208 368 Z" /> <path d="M212 384 L231 370 Z" /> L231 370 Z" /> <path d="M212 384 L213 399 <path d="M233 384 L197 333 Z" /> L176 340 L179 359 Z" /> L203 351 L203 351 L179 359 Z" /> <path d="M182 378 L208 368 Z" /> L208 368 Z" /> <path d="M182 378 L184 394 <path d="M212 384 <path d="M212 384 L184 394 L185 409 Z" /> L213 399 L176 340 <path d="M150 343 <path d="M150 362 L179 359 Z" /> L179 359 Z" /> <path d="M150 362 L150 381 <path d="M182 378 <path d="M182 378 L150 381 L150 398 Z" /> L184 394 L184 394 L150 398 Z" /> <path d="M150 412 L185 409 Z" /> <path d="M150 343 L123 340 Z" /> L120 359 <path d="M150 362 <path d="M150 362 L120 359 L117 378 Z" /> L150 381 L150 381 L117 378 Z" /> <path d="M115 394 L150 398 Z" /> L150 398 Z" /> <path d="M115 394 L114 409 <path d="M150 412 L123 340 Z" /> L102 333 L96 351 Z" /> L120 359 L120 359 L96 351 Z" /> <path d="M91 368 L117 378 Z" /> L117 378 Z" /> <path d="M91 368 L87 384 <path d="M115 394 <path d="M115 394 L87 384 L86 399 Z" /> L114 409 L102 333 <path d="M87 322 <path d="M80 338 L96 351 Z" /> L96 351 Z" /> <path d="M80 338 L73 355 <path d="M91 368 <path d="M91 368 L73 355 L68 370 Z" /> L87 384 L87 384 L68 370 Z" /> <path d="M66 384 L86 399 Z" /> <path d="M87 322 L82 308 Z" /> L74 323 <path d="M80 338 <path d="M80 338 L74 323 L67 337 Z" /> L73 355 L73 355 L67 337 Z" /> <path d="M61 352 L68 370 Z" /> L68 370 Z" /> <path d="M61 352 L60 365 <path d="M66 384 L82 308 Z" /> L87 294 L80 307 Z" /> L74 323 L74 323 L80 307 Z" /> <path d="M73 320 L67 337 Z" /> L67 337 Z" /> <path d="M73 320 L68 333 <path d="M61 352 <path d="M61 352 L68 333 L66 346 Z" /> L60 365 L87 294 <path d="M102 282 <path d="M96 294 L80 307 Z" /> L80 307 Z" /> <path d="M96 294 L91 306 <path d="M73 320 <path d="M73 320 L91 306 L87 319 Z" /> L68 333 L68 333 L87 319 Z" /> <path d="M86 331 L66 346 Z" /> <path d="M102 282 L123 275 Z" /> L120 286 <path d="M96 294 <path d="M96 294 L120 286 L117 297 Z" /> L91 306 L91 306 L117 297 Z" /> <path d="M115 309 L87 319 Z" /> L87 319 Z" /> <path d="M115 309 L114 321 <path d="M86 331 L123 275 Z" /> L150 272 L150 283 Z" /> L120 286 L120 286 L150 283 Z" /> <path d="M150 294 L117 297 Z" /> L117 297 Z" /> <path d="M150 294 L150 305 <path d="M115 309 <path d="M115 309 L150 305 L150 318 Z" /> L114 321 L150 272 <path d="M176 275 <path d="M179 286 L150 283 Z" /> L150 283 Z" /> <path d="M179 286 L182 297 <path d="M150 294 <path d="M150 294 L182 297 L184 309 Z" /> L150 305 L150 305 L184 309 Z" /> <path d="M185 321 L150 318 Z" /> <path d="M176 275 L197 282 Z" /> L203 294 <path d="M179 286 <path d="M179 286 L203 294 L208 306 Z" /> L182 297 L182 297 L208 306 Z" /> <path d="M212 319 L184 309 Z" /> L184 309 Z" /> <path d="M212 319 L213 331 <path d="M185 321 L197 282 Z" /> L212 294 L219 307 Z" /> L203 294 L203 294 L219 307 Z" /> <path d="M226 320 L208 306 Z" /> L208 306 Z" /> <path d="M226 320 L231 333 <path d="M212 319 <path d="M212 319 L231 333 L233 346 Z" /> L213 331 L212 294 L217 308 L225 323 Z" /> L219 307 Z" /> L219 307 Z" /> L225 323 Z" /> <path d="M232 337 <path d="M226 320 <path d="M226 320 <path d="M232 337 L238 352 L231 333 L231 333 L238 352 L240 365 Z" /> L233 346 Z" /> L240 365 Z" /> <path d="M233 384 L229 394 <path d="M236 376 <path d="M236 376 L229 394 L222 401 Z" /> L228 385 L228 385 L222 401 Z" /> <path d="M215 405 L221 390 Z" /> L221 390 Z" /> <path d="M215 405 L212 408 <path d="M217 394 <path d="M233 384 L213 399 L211 409 Z" /> L229 394 L229 394 L211 409 Z" /> <path d="M205 414 L222 401 Z" /> L222 401 Z" /> <path d="M205 414 L200 417 <path d="M215 405 <path d="M215 405 L200 417 L197 419 Z" /> L212 408 L213 399 L185 409 Z" /> <path d="M183 418 L211 409 Z" /> L211 409 Z" /> <path d="M183 418 L180 423 <path d="M205 414 <path d="M205 414 L180 423 L177 425 Z" /> L200 417 L200 417 L177 425 Z" /> <path d="M176 426 L197 419 Z" /> L185 409 Z" /> <path d="M150 412 L150 422 <path d="M183 418 <path d="M183 418 L150 422 L150 426 Z" /> L180 423 L180 423 L150 426 Z" /> <path d="M150 428 L177 425 Z" /> L177 425 Z" /> <path d="M150 428 L150 429 <path d="M176 426 <path d="M150 412 L114 409 L116 418 Z" /> L150 422 L150 422 L116 418 Z" /> <path d="M119 423 L150 426 Z" /> L150 426 Z" /> <path d="M119 423 L122 425 <path d="M150 428 <path d="M150 428 L122 425 L123 426 Z" /> L150 429 L114 409 L86 399 Z" /> <path d="M88 409 L116 418 Z" /> L116 418 Z" /> <path d="M88 409 L94 414 <path d="M119 423 <path d="M119 423 L94 414 L99 417 Z" /> L122 425 L122 425 L99 417 Z" /> <path d="M102 419 L123 426 Z" /> L86 399 Z" /> <path d="M66 384 L70 394 <path d="M88 409 <path d="M88 409 L70 394 L77 401 Z" /> L94 414 L94 414 L77 401 Z" /> <path d="M84 405 L99 417 Z" /> L99 417 Z" /> <path d="M84 405 L87 408 <path d="M102 419 <path d="M66 384 L60 365 L63 376 Z" /> L70 394 L70 394 L63 376 Z" /> <path d="M71 385 L77 401 Z" /> L77 401 Z" /> <path d="M71 385 L78 390 <path d="M84 405 <path d="M84 405 L78 390 L82 394 Z" /> L87 408 L60 365 L66 346 Z" /> <path d="M70 359 L63 376 Z" /> L63 376 Z" /> <path d="M70 359 L77 369 <path d="M71 385 <path d="M71 385 L77 369 L84 376 Z" /> L78 390 L78 390 L84 376 Z" /> <path d="M87 380 L82 394 Z" /> L66 346 Z" /> <path d="M86 331 L88 344 <path d="M70 359 <path d="M70 359 L88 344 L94 355 Z" /> L77 369 L77 369 L94 355 Z" /> <path d="M99 364 L84 376 Z" /> L84 376 Z" /> <path d="M99 364 L102 369 <path d="M87 380 <path d="M86 331 L114 321 L116 334 Z" /> L88 344 L88 344 L116 334 Z" /> <path d="M119 347 L94 355 Z" /> L94 355 Z" /> <path d="M119 347 L122 356 <path d="M99 364 <path d="M99 364 L122 356 L123 361 Z" /> L102 369 L114 321 L150 318 Z" /> <path d="M150 331 L116 334 Z" /> L116 334 Z" /> <path d="M150 331 L150 343 <path d="M119 347 <path d="M119 347 L150 343 L150 353 Z" /> L122 356 L122 356 L150 353 Z" /> <path d="M150 358 L123 361 Z" /> L150 318 Z" /> <path d="M185 321 L183 334 <path d="M150 331 <path d="M150 331 L183 334 L180 347 Z" /> L150 343 L150 343 L180 347 Z" /> <path d="M177 356 L150 353 Z" /> L150 353 Z" /> <path d="M177 356 L176 361 <path d="M150 358 <path d="M185 321 L213 331 L211 344 Z" /> L183 334 L183 334 L211 344 Z" /> <path d="M205 355 L180 347 Z" /> L180 347 Z" /> <path d="M205 355 L200 364 <path d="M177 356 <path d="M177 356 L200 364 L197 369 Z" /> L176 361 L213 331 L233 346 Z" /> <path d="M229 359 L211 344 Z" /> L211 344 Z" /> <path d="M229 359 L222 369 <path d="M205 355 <path d="M205 355 L222 369 L215 376 Z" /> L200 364 L200 364 L215 376 Z" /> <path d="M212 380 L197 369 Z" /> L233 346 Z" /> L240 365 Z" /> <path d="M236 376 <path d="M229 359 <path d="M229 359 <path d="M236 376 L228 385 L222 369 L222 369 L228 385 L221 390 Z" /> L215 376 Z" /> L215 376 Z" /> L221 390 Z" /> <path d="M217 394 <path d="M212 380 <path d="M217 394 L212 408 L210 409 Z" /> L215 396 L215 396 L210 409 Z" /> <path d="M203 410 L207 398 Z" /> L207 398 Z" /> <path d="M203 410 L184 407 <path d="M187 399 <path d="M187 399 L184 407 L150 400 L212 408 L197 419 Z" /> L196 420 Z" /> L210 409 Z" /> L210 409 Z" /> L196 420 Z" /> <path d="M191 419 <path d="M203 410 <path d="M203 410 <path d="M191 419 L176 413 L184 407 L184 407 L176 413 L150 400 L197 419 Z" /> <path d="M176 426 L175 428 Z" /> L196 420 Z" /> L196 420 Z" /> L175 428 Z" /> <path d="M172 426 <path d="M191 419 <path d="M191 419 <path d="M172 426 L164 417 L176 413 L176 413 L164 417 L150 400 <path d="M176 426 L150 429 L150 431 Z" /> L175 428 Z" /> L175 428 Z" /> L150 431 Z" /> <path d="M150 428 <path d="M172 426 <path d="M172 426 <path d="M150 428 L150 419 L164 417 L164 417 L150 419 L150 400 L150 429 L123 426 Z" /> L124 428 Z" /> L150 431 Z" /> L150 431 Z" /> L124 428 Z" /> <path d="M127 426 <path d="M150 428 <path d="M150 428 <path d="M127 426 L135 417 L150 419 L150 419 L135 417 L150 400 L123 426 Z" /> <path d="M102 419 L103 420 Z" /> L124 428 Z" /> L124 428 Z" /> L103 420 Z" /> <path d="M108 419 <path d="M127 426 <path d="M127 426 <path d="M108 419 L123 413 L135 417 L135 417 L123 413 L150 400 <path d="M102 419 L87 408 L89 409 Z" /> L103 420 Z" /> L103 420 Z" /> L89 409 Z" /> <path d="M96 410 <path d="M108 419 <path d="M108 419 <path d="M96 410 L115 407 L123 413 L123 413 L115 407 L150 400 L87 408 L82 394 Z" /> L84 396 Z" /> L89 409 Z" /> L89 409 Z" /> L84 396 Z" /> <path d="M92 398 <path d="M96 410 <path d="M96 410 <path d="M92 398 L112 399 L115 407 L115 407 L112 399 L150 400 L82 394 Z" /> <path d="M87 380 L89 382 Z" /> L84 396 Z" /> L84 396 Z" /> L89 382 Z" /> <path d="M96 386 <path d="M92 398 <path d="M92 398 <path d="M96 386 L115 391 L112 399 L112 399 L115 391 L150 400 <path d="M87 380 L102 369 L103 371 Z" /> L89 382 Z" /> L89 382 Z" /> L103 371 Z" /> <path d="M108 376 <path d="M96 386 <path d="M96 386 <path d="M108 376 L123 385 L115 391 L115 391 L123 385 L150 400 L102 369 L123 361 Z" /> L124 364 Z" /> L103 371 Z" /> L103 371 Z" /> L124 364 Z" /> <path d="M127 370 <path d="M108 376 <path d="M108 376 <path d="M127 370 L135 381 L123 385 L123 385 L135 381 L150 400 L123 361 Z" /> <path d="M150 358 L150 361 Z" /> L124 364 Z" /> L124 364 Z" /> L150 361 Z" /> <path d="M150 367 <path d="M127 370 <path d="M127 370 <path d="M150 367 L150 379 L135 381 L135 381 L150 379 L150 400 <path d="M150 358 L176 361 L175 364 Z" /> L150 361 Z" /> L150 361 Z" /> L175 364 Z" /> <path d="M172 370 <path d="M150 367 <path d="M150 367 <path d="M172 370 L164 381 L150 379 L150 379 L164 381 L150 400 L176 361 L197 369 Z" /> L196 371 Z" /> L175 364 Z" /> L175 364 Z" /> L196 371 Z" /> <path d="M191 376 <path d="M172 370 <path d="M172 370 <path d="M191 376 L176 385 L164 381 L164 381 L176 385 L150 400 L197 369 Z" /> <path d="M212 380 L210 382 Z" /> L196 371 Z" /> L196 371 Z" /> L210 382 Z" /> <path d="M203 386 <path d="M191 376 <path d="M191 376 <path d="M203 386 L184 391 L176 385 L176 385 L184 391 L150 400 <path d="M212 380 <path d="M217 394 L215 396 L210 382 Z" /> L210 382 Z" /> L215 396 L207 398 Z" /> <path d="M203 386 <path d="M203 386 L207 398 Z" /> <path d="M187 399 L184 391 L184 391 <path d="M187 399 L150 400 L78 322 Z" /> L78 325 L56 325 Z" /> <path d="M56 322 <path d="M56 322 L56 325 Z" /> <path d="M39 326 L41 323 L41 323 <path d="M39 326 L29 329 L31 326 Z" /> L31 326 Z" /> L29 329 L26 335 Z" /> <path d="M28 331 L78 325 <path d="M80 323 L54 323 L56 325 Z" /> L56 325 Z" /> L54 323 L36 325 Z" /> <path d="M39 326 <path d="M39 326 L36 325 Z" /> <path d="M25 328 L29 329 L29 329 <path d="M25 328 L21 336 L26 335 Z" /> <path d="M80 323 L81 319 Z" /> <path d="M53 319 L54 323 L54 323 <path d="M53 319 L33 321 L36 325 Z" /> L36 325 Z" /> L33 321 L21 325 Z" /> <path d="M25 328 <path d="M25 328 L21 325 Z" /> <path d="M17 335 L21 336 L81 319 Z" /> L82 313 L52 314 Z" /> <path d="M53 319 <path d="M53 319 L52 314 Z" /> <path d="M31 315 L33 321 L33 321 <path d="M31 315 L19 321 L21 325 Z" /> L21 325 Z" /> L19 321 L15 331 Z" /> <path d="M17 335 L82 313 <path d="M81 311 L53 311 L52 314 Z" /> L52 314 Z" /> L53 311 L33 313 Z" /> <path d="M31 315 <path d="M31 315 L33 313 Z" /> <path d="M21 317 L19 321 L19 321 <path d="M21 317 L17 327 L15 331 Z" /> <path d="M81 311 L80 312 Z" /> <path d="M54 313 L53 311 L53 311 <path d="M54 313 L36 314 L33 313 Z" /> L33 313 Z" /> L36 314 L25 318 Z" /> <path d="M21 317 <path d="M21 317 L25 318 Z" /> <path d="M21 325 L17 327 L80 312 Z" /> L78 317 L56 317 Z" /> <path d="M54 313 <path d="M54 313 L56 317 Z" /> <path d="M39 318 L36 314 L36 314 <path d="M39 318 L29 321 L25 318 Z" /> L25 318 Z" /> L29 321 L26 327 Z" /> <path d="M21 325 L78 317 L78 322 Z" /> <path d="M56 322 L56 317 Z" /> L56 317 Z" /> <path d="M56 322 L41 323 <path d="M39 318 <path d="M39 318 L41 323 L31 326 Z" /> L29 321 L29 321 L31 326 Z" /> <path d="M28 331 L26 327 Z" /> <path d="M28 331 L26 335 Z" /> L28 343 <path d="M30 338 <path d="M30 338 L28 343 L34 353 Z" /> L35 348 L35 348 L34 353 Z" /> <path d="M45 363 L45 357 Z" /> L45 357 Z" /> <path d="M45 363 L60 371 <path d="M60 365 L26 335 Z" /> L21 336 L24 346 Z" /> L28 343 L28 343 L24 346 Z" /> <path d="M31 357 L34 353 Z" /> L34 353 Z" /> <path d="M31 357 L44 367 <path d="M45 363 <path d="M45 363 L44 367 L62 376 Z" /> L60 371 L21 336 <path d="M17 335 <path d="M19 346 L24 346 Z" /> L24 346 Z" /> <path d="M19 346 L28 358 <path d="M31 357 <path d="M31 357 L28 358 L43 369 Z" /> L44 367 L44 367 L43 369 Z" /> <path d="M63 379 L62 376 Z" /> <path d="M17 335 L15 331 Z" /> L17 343 <path d="M19 346 <path d="M19 346 L17 343 L27 355 Z" /> L28 358 L28 358 L27 355 Z" /> <path d="M42 366 L43 369 Z" /> L43 369 Z" /> <path d="M42 366 L64 377 <path d="M63 379 L15 331 Z" /> L17 327 L19 338 Z" /> L17 343 L17 343 L19 338 Z" /> <path d="M28 350 L27 355 Z" /> L27 355 Z" /> <path d="M28 350 L43 361 <path d="M42 366 <path d="M42 366 L43 361 L63 371 Z" /> L64 377 L17 327 <path d="M21 325 <path d="M24 335 L19 338 Z" /> L19 338 Z" /> <path d="M24 335 L31 346 <path d="M28 350 <path d="M28 350 L31 346 L44 356 Z" /> L43 361 L43 361 L44 356 Z" /> <path d="M62 365 L63 371 Z" /> <path d="M21 325 L26 327 Z" /> L28 335 <path d="M24 335 <path d="M24 335 L28 335 L34 345 Z" /> L31 346 L31 346 L34 345 Z" /> <path d="M45 355 L44 356 Z" /> L44 356 Z" /> <path d="M45 355 L60 363 <path d="M62 365 L26 327 Z" /> <path d="M28 331 <path d="M30 338 L28 335 L28 335 <path d="M30 338 L35 348 L34 345 Z" /> L34 345 Z" /> L35 348 L45 357 Z" /> <path d="M45 355 <path d="M45 355 L45 357 Z" /> <path d="M60 365 L60 363 L226 345 Z" /> L226 359 L249 352 Z" /> <path d="M248 341 <path d="M248 341 L249 352 Z" /> <path d="M259 339 L257 331 L257 331 <path d="M259 339 L265 323 L262 318 Z" /> L262 318 Z" /> L265 323 L275 311 Z" /> <path d="M271 308 L226 359 <path d="M226 372 L253 363 L249 352 Z" /> L249 352 Z" /> L253 363 L264 345 Z" /> <path d="M259 339 <path d="M259 339 L264 345 Z" /> <path d="M270 326 L265 323 L265 323 <path d="M270 326 L285 312 L275 311 Z" /> <path d="M226 372 L226 380 Z" /> <path d="M256 368 L253 363 L253 363 <path d="M256 368 L268 348 L264 345 Z" /> L264 345 Z" /> L268 348 L276 327 Z" /> <path d="M270 326 <path d="M270 326 L276 327 Z" /> <path d="M294 311 L285 312 L226 380 Z" /> L226 377 L258 364 Z" /> <path d="M256 368 <path d="M256 368 L258 364 Z" /> <path d="M270 344 L268 348 L268 348 <path d="M270 344 L279 323 L276 327 Z" /> L276 327 Z" /> L279 323 L298 308 Z" /> <path d="M294 311 L226 377 <path d="M226 363 L256 353 L258 364 Z" /> L258 364 Z" /> L256 353 L268 336 Z" /> <path d="M270 344 <path d="M270 344 L268 336 Z" /> <path d="M276 318 L279 323 L279 323 <path d="M276 318 L294 304 L298 308 Z" /> <path d="M226 363 L226 349 Z" /> <path d="M253 342 L256 353 L256 353 <path d="M253 342 L264 329 L268 336 Z" /> L268 336 Z" /> L264 329 L270 315 Z" /> <path d="M276 318 <path d="M276 318 L270 315 Z" /> <path d="M285 303 L294 304 L226 349 Z" /> L226 341 L249 336 Z" /> <path d="M253 342 <path d="M253 342 L249 336 Z" /> <path d="M259 327 L264 329 L264 329 <path d="M259 327 L265 315 L270 315 Z" /> L270 315 Z" /> L265 315 L275 304 Z" /> <path d="M285 303 L226 341 L226 345 Z" /> <path d="M248 341 L249 336 Z" /> L249 336 Z" /> <path d="M248 341 L257 331 <path d="M259 327 <path d="M259 327 L257 331 L262 318 Z" /> L265 315 L265 315 L262 318 Z" /> <path d="M271 308 L275 304 Z" /> <path d="M271 308 L275 311 Z" /> L279 309 <path d="M274 306 <path d="M274 306 L279 309 L281 308 Z" /> L277 305 L277 305 L281 308 Z" /> <path d="M281 308 L277 306 Z" /> L277 306 Z" /> <path d="M281 308 L278 310 <path d="M276 308 L275 311 Z" /> L285 312 L289 310 Z" /> L279 309 L279 309 L289 310 Z" /> <path d="M290 309 L281 308 Z" /> L281 308 Z" /> <path d="M290 309 L289 309 <path d="M281 308 <path d="M281 308 L289 309 L285 310 Z" /> L278 310 L285 312 <path d="M294 311 <path d="M299 309 L289 310 Z" /> L289 310 Z" /> <path d="M299 309 L300 307 <path d="M290 309 <path d="M290 309 L300 307 L297 308 Z" /> L289 309 L289 309 L297 308 Z" /> <path d="M291 310 L285 310 Z" /> <path d="M294 311 L298 308 Z" /> L303 305 <path d="M299 309 <path d="M299 309 L303 305 L304 305 Z" /> L300 307 L300 307 L304 305 Z" /> <path d="M300 305 L297 308 Z" /> L297 308 Z" /> <path d="M300 305 L294 308 <path d="M291 310 L298 308 Z" /> L294 304 L299 302 Z" /> L303 305 L303 305 L299 302 Z" /> <path d="M300 302 L304 305 Z" /> L304 305 Z" /> <path d="M300 302 L297 303 <path d="M300 305 <path d="M300 305 L297 303 L291 306 Z" /> L294 308 L294 304 <path d="M285 303 <path d="M289 302 L299 302 Z" /> L299 302 Z" /> <path d="M289 302 L290 301 <path d="M300 302 <path d="M300 302 L290 301 L289 303 Z" /> L297 303 L297 303 L289 303 Z" /> <path d="M285 305 L291 306 Z" /> <path d="M285 303 L275 304 Z" /> L279 303 <path d="M289 302 <path d="M289 302 L279 303 L281 303 Z" /> L290 301 L290 301 L281 303 Z" /> <path d="M281 304 L289 303 Z" /> L289 303 Z" /> <path d="M281 304 L278 306 <path d="M285 305 L275 304 Z" /> <path d="M271 308 <path d="M274 306 L279 303 L279 303 <path d="M274 306 L277 305 L281 303 Z" /> L281 303 Z" /> L277 305 L277 306 Z" /> <path d="M281 304 <path d="M281 304 L277 306 Z" /> <path d="M276 308 L278 306 L164 284 <path d="M165 281 L150 279 Z" /> <path d="M165 281 L164 284 L163 288 Z" /> L164 285 L164 285 L163 288 Z" /> <path d="M158 293 L158 291 Z" /> L158 291 Z" /> <path d="M158 293 L158 298 <path d="M159 296 L160 286 Z" /> L164 284 L150 279 Z" /> L164 284 L160 286 Z" /> <path d="M160 291 L163 288 Z" /> L163 288 Z" /> <path d="M160 291 L156 294 <path d="M158 293 <path d="M158 293 L156 294 L156 299 Z" /> L158 298 <path d="M156 288 L160 286 Z" /> L150 279 Z" /> L160 286 Z" /> <path d="M156 288 L155 292 <path d="M160 291 <path d="M160 291 L155 292 L153 295 Z" /> L156 294 L156 294 L153 295 Z" /> <path d="M153 300 L156 299 Z" /> L150 289 <path d="M156 288 L150 279 Z" /> <path d="M156 288 L150 289 L150 293 Z" /> L155 292 L155 292 L150 293 Z" /> <path d="M150 296 L153 295 Z" /> L153 295 Z" /> <path d="M150 296 L150 301 <path d="M153 300 L143 288 Z" /> L150 289 L150 279 Z" /> L150 289 L143 288 Z" /> <path d="M144 292 L150 293 Z" /> L150 293 Z" /> <path d="M144 292 L146 295 <path d="M150 296 <path d="M150 296 L146 295 L146 300 Z" /> L150 301 <path d="M139 286 L143 288 Z" /> L150 279 Z" /> L143 288 Z" /> <path d="M139 286 L139 291 <path d="M144 292 <path d="M144 292 L139 291 L143 294 Z" /> L146 295 L146 295 L143 294 Z" /> <path d="M143 299 L146 300 Z" /> L135 284 <path d="M139 286 L150 279 Z" /> <path d="M139 286 L135 284 L136 288 Z" /> L139 291 L139 291 L136 288 Z" /> <path d="M141 293 L143 294 Z" /> L143 294 Z" /> <path d="M141 293 L141 298 <path d="M143 299 L134 281 Z" /> L135 284 L150 279 Z" /> L135 284 L134 281 Z" /> <path d="M135 285 L136 288 Z" /> L136 288 Z" /> <path d="M135 285 L141 291 <path d="M141 293 <path d="M141 293 L141 291 L141 296 Z" /> L141 298 <path d="M135 278 L134 281 Z" /> L150 279 Z" /> L134 281 Z" /> <path d="M135 278 L136 282 <path d="M135 285 <path d="M135 285 L136 282 L141 289 Z" /> L141 291 L141 291 L141 289 Z" /> <path d="M141 294 L141 296 Z" /> L139 275 <path d="M135 278 L150 279 Z" /> <path d="M135 278 L139 275 L139 280 Z" /> L136 282 L136 282 L139 280 Z" /> <path d="M143 288 L141 289 Z" /> L141 289 Z" /> <path d="M143 288 L143 293 <path d="M141 294 L143 273 Z" /> L139 275 L150 279 Z" /> L139 275 L143 273 Z" /> <path d="M144 278 L139 280 Z" /> L139 280 Z" /> <path d="M144 278 L146 287 <path d="M143 288 <path d="M143 288 L146 287 L146 292 Z" /> L143 293 <path d="M150 273 L143 273 Z" /> L150 279 Z" /> L143 273 Z" /> <path d="M150 273 L150 278 <path d="M144 278 <path d="M144 278 L150 278 L150 286 Z" /> L146 287 L146 287 L150 286 Z" /> <path d="M150 291 L146 292 Z" /> L156 273 <path d="M150 273 L150 279 Z" /> <path d="M150 273 L156 273 L155 278 Z" /> L150 278 L150 278 L155 278 Z" /> <path d="M153 287 L150 286 Z" /> L150 286 Z" /> <path d="M153 287 L153 292 <path d="M150 291 L160 275 Z" /> L156 273 L150 279 Z" /> L156 273 L160 275 Z" /> <path d="M160 280 L155 278 Z" /> L155 278 Z" /> <path d="M160 280 L156 288 <path d="M153 287 <path d="M153 287 L156 288 L156 293 Z" /> L153 292 <path d="M164 278 L160 275 Z" /> L150 279 Z" /> L160 275 Z" /> <path d="M164 278 L163 282 <path d="M160 280 <path d="M160 280 L163 282 L158 289 Z" /> L156 288 L156 288 L158 289 Z" /> <path d="M158 294 L156 293 Z" /> <path d="M165 281 <path d="M164 278 L150 279 Z" /> <path d="M164 278 <path d="M165 281 L164 285 L163 282 L163 282 L164 285 L158 291 Z" /> L158 289 Z" /> L158 289 Z" /> L158 291 Z" /> <path d="M159 296 <path d="M158 294 <path d="M159 296 L158 298 L168 304 Z" /> L170 300 L170 300 L168 304 Z" /> <path d="M184 310 L187 302 Z" /> L187 302 Z" /> <path d="M184 310 L197 315 <path d="M202 304 <path d="M202 304 L197 315 L203 320 Z" /> L208 308 L158 298 L156 299 Z" /> <path d="M164 307 L168 304 Z" /> L168 304 Z" /> <path d="M164 307 L176 316 <path d="M184 310 <path d="M184 310 L176 316 L186 324 Z" /> L197 315 L197 315 L186 324 Z" /> <path d="M191 329 L203 320 Z" /> L156 299 Z" /> <path d="M153 300 L158 309 <path d="M164 307 <path d="M164 307 L158 309 L164 320 Z" /> L176 316 L176 316 L164 320 Z" /> <path d="M170 329 L186 324 Z" /> L186 324 Z" /> <path d="M170 329 L172 336 <path d="M191 329 <path d="M153 300 L150 301 L150 310 Z" /> L158 309 L158 309 L150 310 Z" /> <path d="M150 321 L164 320 Z" /> L164 320 Z" /> <path d="M150 321 L150 332 <path d="M170 329 <path d="M170 329 L150 332 L150 338 Z" /> L172 336 L150 301 L146 300 Z" /> <path d="M141 309 L150 310 Z" /> L150 310 Z" /> <path d="M141 309 L135 320 <path d="M150 321 <path d="M150 321 L135 320 L129 329 Z" /> L150 332 L150 332 L129 329 Z" /> <path d="M127 336 L150 338 Z" /> L146 300 Z" /> <path d="M143 299 L135 307 <path d="M141 309 <path d="M141 309 L135 307 L123 316 Z" /> L135 320 L135 320 L123 316 Z" /> <path d="M113 324 L129 329 Z" /> L129 329 Z" /> <path d="M113 324 L108 329 <path d="M127 336 <path d="M143 299 L141 298 L131 304 Z" /> L135 307 L135 307 L131 304 Z" /> <path d="M115 310 L123 316 Z" /> L123 316 Z" /> <path d="M115 310 L102 315 <path d="M113 324 <path d="M113 324 L102 315 L96 320 Z" /> L108 329 L141 298 L141 296 Z" /> <path d="M129 300 L131 304 Z" /> L131 304 Z" /> <path d="M129 300 L112 302 <path d="M115 310 <path d="M115 310 L112 302 L97 304 Z" /> L102 315 L102 315 L97 304 Z" /> <path d="M91 308 L96 320 Z" /> L141 296 Z" /> <path d="M141 294 L131 295 <path d="M129 300 <path d="M129 300 L131 295 L115 294 Z" /> L112 302 L112 302 L115 294 Z" /> <path d="M102 293 L97 304 Z" /> L97 304 Z" /> <path d="M102 293 L96 296 <path d="M91 308 <path d="M141 294 L143 293 L135 292 Z" /> L131 295 L131 295 L135 292 Z" /> <path d="M123 288 L115 294 Z" /> L115 294 Z" /> <path d="M123 288 L113 285 <path d="M102 293 <path d="M102 293 L113 285 L108 286 Z" /> L96 296 L143 293 L146 292 Z" /> <path d="M141 290 L135 292 Z" /> L135 292 Z" /> <path d="M141 290 L135 284 <path d="M123 288 <path d="M123 288 L135 284 L129 279 Z" /> L113 285 L113 285 L129 279 Z" /> <path d="M127 279 L108 286 Z" /> L146 292 Z" /> <path d="M150 291 L150 289 <path d="M141 290 <path d="M141 290 L150 289 L150 282 Z" /> L135 284 L135 284 L150 282 Z" /> <path d="M150 277 L129 279 Z" /> L129 279 Z" /> <path d="M150 277 L150 277 <path d="M127 279 <path d="M150 291 L153 292 L158 290 Z" /> L150 289 L150 289 L158 290 Z" /> <path d="M164 284 L150 282 Z" /> L150 282 Z" /> <path d="M164 284 L170 279 <path d="M150 277 <path d="M150 277 L170 279 L172 279 Z" /> L150 277 L153 292 L156 293 Z" /> <path d="M164 292 L158 290 Z" /> L158 290 Z" /> <path d="M164 292 L176 288 <path d="M164 284 <path d="M164 284 L176 288 L186 285 Z" /> L170 279 L170 279 L186 285 Z" /> <path d="M191 286 L172 279 Z" /> L156 293 Z" /> <path d="M158 294 L168 295 <path d="M164 292 <path d="M164 292 L168 295 L184 294 Z" /> L176 288 L176 288 L184 294 Z" /> <path d="M197 293 L186 285 Z" /> L186 285 Z" /> <path d="M197 293 L203 296 <path d="M191 286 <path d="M158 294 <path d="M159 296 L170 300 L168 295 L168 295 L170 300 L187 302 Z" /> L184 294 Z" /> L184 294 Z" /> L187 302 Z" /> <path d="M202 304 <path d="M197 293 <path d="M197 293 <path d="M202 304 L208 308 L203 296 " stroke="darkred" stroke-width="0.2" fill="none" /></svg>