<svg xmlns="http://www.w3.org/2000/svg" version="1.1" width="500" height="500"> <polygon points="358,127 378,144 380,140 359,123 359,123 380,140 381,139 361,122 361,122 381,139 383,141 362,123 362,123 383,141 383,146 361,127 378,144 388,158 389,154 380,140 380,140 389,154 391,153 381,139 381,139 391,153 393,156 383,141 383,141 393,156 394,161 383,146 388,158 387,168 388,163 389,154 389,154 388,163 390,163 391,153 391,153 390,163 392,165 393,156 393,156 392,165 393,171 394,161 387,168 375,171 376,167 388,163 388,163 376,167 377,166 390,163 390,163 377,166 379,169 392,165 392,165 379,169 379,174 393,171 375,171 351,168 354,163 376,167 376,167 354,163 355,163 377,166 377,166 355,163 356,165 379,169 379,169 356,165 355,171 379,174 351,168 325,158 327,154 354,163 354,163 327,154 328,153 355,163 355,163 328,153 328,156 356,165 356,165 328,156 327,161 355,171 325,158 297,144 299,140 327,154 327,154 299,140 300,139 328,153 328,153 300,139 298,141 328,156 328,156 298,141 296,146 327,161 297,144 270,127 272,123 299,140 299,140 272,123 272,122 300,139 300,139 272,122 270,123 298,141 298,141 270,123 267,127 296,146 270,127 249,110 252,106 272,123 272,123 252,106 252,105 272,122 272,122 252,105 249,105 270,123 270,123 249,105 245,108 267,127 249,110 239,96 242,92 252,106 252,106 242,92 242,91 252,105 252,105 242,91 239,91 249,105 249,105 239,91 234,93 245,108 239,96 240,86 243,83 242,92 242,92 243,83 243,81 242,91 242,91 243,81 240,81 239,91 239,91 240,81 235,83 234,93 240,86 253,83 256,80 243,83 243,83 256,80 256,78 243,81 243,81 256,78 253,78 240,81 240,81 253,78 249,80 235,83 253,83 275,86 278,83 256,80 256,80 278,83 278,81 256,78 256,78 278,81 276,81 253,78 253,78 276,81 272,83 249,80 275,86 302,96 304,92 278,83 278,83 304,92 305,91 278,81 278,81 305,91 304,91 276,81 276,81 304,91 301,93 272,83 302,96 331,110 332,106 304,92 304,92 332,106 333,105 305,91 305,91 333,105 333,105 304,91 304,91 333,105 332,108 301,93 331,110 358,127 359,123 332,106 332,106 359,123 361,122 333,105 333,105 361,122 362,123 333,105 333,105 362,123 361,127 332,108 361,127 383,146 381,168 356,147 356,147 381,168 378,190 351,167 351,167 378,190 373,210 345,186 345,186 373,210 366,228 337,204 383,146 394,161 393,185 381,168 381,168 393,185 391,208 378,190 378,190 391,208 387,229 373,210 373,210 387,229 380,248 366,228 394,161 393,171 392,196 393,185 393,185 392,196 390,220 391,208 391,208 390,220 386,243 387,229 387,229 386,243 379,262 380,248 393,171 379,174 376,200 392,196 392,196 376,200 373,225 390,220 390,220 373,225 368,247 386,243 386,243 368,247 361,267 379,262 379,174 355,171 350,196 376,200 376,200 350,196 344,220 373,225 373,225 344,220 337,243 368,247 368,247 337,243 329,262 361,267 355,171 327,161 318,185 350,196 350,196 318,185 309,208 344,220 344,220 309,208 300,229 337,243 337,243 300,229 291,248 329,262 327,161 296,146 283,168 318,185 318,185 283,168 271,190 309,208 309,208 271,190 260,210 300,229 300,229 260,210 250,228 291,248 296,146 267,127 250,147 283,168 283,168 250,147 235,167 271,190 271,190 235,167 221,186 260,210 260,210 221,186 211,204 250,228 267,127 245,108 226,126 250,147 250,147 226,126 208,144 235,167 235,167 208,144 193,161 221,186 221,186 193,161 181,179 211,204 245,108 234,93 214,109 226,126 226,126 214,109 195,125 208,144 208,144 195,125 179,142 193,161 193,161 179,142 167,159 181,179 234,93 235,83 215,98 214,109 214,109 215,98 196,113 195,125 195,125 196,113 180,129 179,142 179,142 180,129 169,145 167,159 235,83 249,80 230,94 215,98 215,98 230,94 213,109 196,113 196,113 213,109 198,124 180,129 180,129 198,124 187,141 169,145 249,80 272,83 257,98 230,94 230,94 257,98 242,113 213,109 213,109 242,113 229,129 198,124 198,124 229,129 218,145 187,141 272,83 301,93 289,109 257,98 257,98 289,109 277,125 242,113 242,113 277,125 266,142 229,129 229,129 266,142 257,159 218,145 301,93 332,108 324,126 289,109 289,109 324,126 315,144 277,125 277,125 315,144 307,161 266,142 266,142 307,161 298,179 257,159 332,108 361,127 356,147 324,126 324,126 356,147 351,167 315,144 315,144 351,167 345,186 307,161 307,161 345,186 337,204 298,179 337,204 366,228 354,242 326,219 326,219 354,242 341,252 315,230 315,230 341,252 329,257 306,237 306,237 329,257 323,260 301,242 366,228 380,248 368,262 354,242 354,242 368,262 353,269 341,252 341,252 353,269 340,273 329,257 329,257 340,273 333,275 323,260 380,248 379,262 366,275 368,262 368,262 366,275 352,281 353,269 353,269 352,281 339,283 340,273 340,273 339,283 332,285 333,275 379,262 361,267 349,279 366,275 366,275 349,279 336,285 352,281 352,281 336,285 324,287 339,283 339,283 324,287 319,289 332,285 361,267 329,262 319,275 349,279 349,279 319,275 308,281 336,285 336,285 308,281 300,283 324,287 324,287 300,283 295,285 319,289 329,262 291,248 282,262 319,275 319,275 282,262 275,269 308,281 308,281 275,269 269,273 300,283 300,283 269,273 266,275 295,285 291,248 250,228 243,242 282,262 282,262 243,242 239,252 275,269 275,269 239,252 237,257 269,273 269,273 237,257 235,260 266,275 250,228 211,204 205,219 243,242 243,242 205,219 205,230 239,252 239,252 205,230 206,237 237,257 237,257 206,237 206,242 235,260 211,204 181,179 177,195 205,219 205,219 177,195 179,208 205,230 205,230 179,208 183,218 206,237 206,237 183,218 184,223 206,242 181,179 167,159 163,176 177,195 177,195 163,176 167,191 179,208 179,208 167,191 172,202 183,218 183,218 172,202 174,208 184,223 167,159 169,145 165,163 163,176 163,176 165,163 168,179 167,191 167,191 168,179 173,192 172,202 172,202 173,192 175,198 174,208 169,145 187,141 182,158 165,163 165,163 182,158 184,175 168,179 168,179 184,175 187,188 173,192 173,192 187,188 188,195 175,198 187,141 218,145 212,163 182,158 182,158 212,163 211,179 184,175 184,175 211,179 212,192 187,188 187,188 212,192 212,198 188,195 218,145 257,159 249,176 212,163 212,163 249,176 245,191 211,179 211,179 245,191 242,202 212,192 212,192 242,202 241,208 212,198 257,159 298,179 289,195 249,176 249,176 289,195 281,208 245,191 245,191 281,208 275,218 242,202 242,202 275,218 272,223 241,208 298,179 337,204 326,219 289,195 289,195 326,219 315,230 281,208 281,208 315,230 306,237 275,218 275,218 306,237 301,242 272,223 301,242 323,260 320,263 298,245 298,245 320,263 310,263 291,247 291,247 310,263 288,259 276,249 276,249 288,259 250,250 323,260 333,275 330,277 320,263 320,263 330,277 319,276 310,263 310,263 319,276 294,268 288,259 288,259 294,268 250,250 333,275 332,285 329,287 330,277 330,277 329,287 318,284 319,276 319,276 318,284 294,273 294,268 294,268 294,273 250,250 332,285 319,289 316,291 329,287 329,287 316,291 307,288 318,284 318,284 307,288 286,275 294,273 294,273 286,275 250,250 319,289 295,285 293,287 316,291 316,291 293,287 286,284 307,288 307,288 286,284 273,273 286,275 286,275 273,273 250,250 295,285 266,275 264,277 293,287 293,287 264,277 262,276 286,284 286,284 262,276 257,268 273,273 273,273 257,268 250,250 266,275 235,260 234,263 264,277 264,277 234,263 235,263 262,276 262,276 235,263 240,259 257,268 257,268 240,259 250,250 235,260 206,242 206,245 234,263 234,263 206,245 210,247 235,263 235,263 210,247 224,249 240,259 240,259 224,249 250,250 206,242 184,223 184,227 206,245 206,245 184,227 192,231 210,247 210,247 192,231 211,239 224,249 224,249 211,239 250,250 184,223 174,208 174,212 184,227 184,227 174,212 182,218 192,231 192,231 182,218 205,230 211,239 211,239 205,230 250,250 174,208 175,198 175,202 174,212 174,212 175,202 183,210 182,218 182,218 183,210 206,225 205,230 205,230 206,225 250,250 175,198 188,195 188,198 175,202 175,202 188,198 195,207 183,210 183,210 195,207 214,223 206,225 206,225 214,223 250,250 188,195 212,198 211,202 188,198 188,198 211,202 215,210 195,207 195,207 215,210 227,225 214,223 214,223 227,225 250,250 212,198 241,208 240,212 211,202 211,202 240,212 240,218 215,210 215,210 240,218 243,230 227,225 227,225 243,230 250,250 241,208 272,223 270,227 240,212 240,212 270,227 266,231 240,218 240,218 266,231 260,239 243,230 243,230 260,239 250,250 272,223 301,242 298,245 270,227 270,227 298,245 291,247 266,231 266,231 291,247 276,249 260,239 260,239 276,249 250,250 253,146 262,150 246,150 239,146 239,146 246,150 234,151 227,148 227,148 234,151 225,155 218,151 218,151 225,155 219,163 213,158 262,150 268,147 250,148 246,150 246,150 250,148 236,150 234,151 234,151 236,150 226,155 225,155 225,155 226,155 218,165 219,163 268,147 268,142 249,142 250,148 250,148 249,142 233,144 236,150 236,150 233,144 221,151 226,155 226,155 221,151 212,163 218,165 268,142 263,135 242,135 249,142 249,142 242,135 226,137 233,144 233,144 226,137 213,144 221,151 221,151 213,144 203,158 212,163 263,135 254,131 234,131 242,135 242,135 234,131 218,134 226,137 226,137 218,134 207,140 213,144 213,144 207,140 197,152 203,158 254,131 248,133 230,134 234,131 234,131 230,134 217,135 218,134 218,134 217,135 206,141 207,140 207,140 206,141 198,151 197,152 248,133 247,139 232,139 230,134 230,134 232,139 219,141 217,135 217,135 219,141 210,145 206,141 206,141 210,145 204,152 198,151 247,139 253,146 239,146 232,139 232,139 239,146 227,148 219,141 219,141 227,148 218,151 210,145 210,145 218,151 213,158 204,152 213,158 219,163 214,174 208,168 208,168 214,174 211,187 206,181 206,181 211,187 212,200 206,193 206,193 212,200 217,211 211,204 219,163 218,165 212,178 214,174 214,174 212,178 210,193 211,187 211,187 210,193 211,206 212,200 212,200 211,206 218,218 217,211 218,165 212,163 206,179 212,178 212,178 206,179 204,194 210,193 210,193 204,194 206,209 211,206 211,206 206,209 214,222 218,218 212,163 203,158 196,174 206,179 206,179 196,174 194,190 204,194 204,194 194,190 197,205 206,209 206,209 197,205 206,219 214,222 203,158 197,152 191,168 196,174 196,174 191,168 189,184 194,190 194,190 189,184 191,198 197,205 197,205 191,198 199,211 206,219 197,152 198,151 193,164 191,168 191,168 193,164 190,178 189,184 189,184 190,178 192,192 191,198 191,198 192,192 198,204 199,211 198,151 204,152 199,164 193,164 193,164 199,164 197,177 190,178 190,178 197,177 197,190 192,192 192,192 197,190 203,201 198,204 204,152 213,158 208,168 199,164 199,164 208,168 206,181 197,177 197,177 206,181 206,193 197,190 197,190 206,193 211,204 203,201 341,177 354,195 373,187 359,171 359,171 373,187 384,169 373,158 373,158 384,169 394,148 385,141 385,141 394,148 408,131 399,127 354,195 352,213 374,201 373,187 373,187 374,201 388,177 384,169 384,169 388,177 400,152 394,148 394,148 400,152 417,133 408,131 352,213 339,224 366,208 374,201 374,201 366,208 384,181 388,177 388,177 384,181 400,152 400,152 400,152 400,152 421,131 417,133 339,224 319,219 350,202 366,208 366,208 350,202 373,176 384,181 384,181 373,176 393,148 400,152 400,152 393,148 418,127 421,131 319,219 307,201 337,187 350,202 350,202 337,187 362,165 373,176 373,176 362,165 384,141 393,148 393,148 384,141 409,123 418,127 307,201 309,182 335,173 337,187 337,187 335,173 358,156 362,165 362,165 358,156 379,137 384,141 384,141 379,137 400,121 409,123 309,182 322,172 343,165 335,173 335,173 343,165 362,152 358,156 358,156 362,152 379,137 379,137 379,137 379,137 396,123 400,121 322,172 341,177 359,171 343,165 343,165 359,171 373,158 362,152 362,152 373,158 385,141 379,137 379,137 385,141 399,127 396,123 399,127 408,131 411,129 402,125 402,125 411,129 412,127 404,124 404,124 412,127 411,128 405,125 405,125 411,128 408,130 402,127 408,131 417,133 420,130 411,129 411,129 420,130 421,128 412,127 412,127 421,128 418,128 411,128 411,128 418,128 413,131 408,130 417,133 421,131 425,128 420,130 420,130 425,128 426,127 421,128 421,128 426,127 423,127 418,128 418,128 423,127 416,130 413,131 421,131 418,127 423,124 425,128 425,128 423,124 424,123 426,127 426,127 424,123 421,124 423,127 423,127 421,124 415,127 416,130 418,127 409,123 414,120 423,124 423,124 414,120 416,120 424,123 424,123 416,120 415,121 421,124 421,124 415,121 409,124 415,127 409,123 400,121 405,119 414,120 414,120 405,119 408,119 416,120 416,120 408,119 407,120 415,121 415,121 407,120 404,123 409,124 400,121 396,123 400,121 405,119 405,119 400,121 403,120 408,119 408,119 403,120 403,122 407,120 407,120 403,122 400,124 404,123 396,123 399,127 402,125 400,121 400,121 402,125 404,124 403,120 403,120 404,124 405,125 403,122 403,122 405,125 402,127 400,124 348,95 343,91 334,89 343,91 348,95 344,101 340,97 340,97 344,101 335,107 332,105 332,105 335,107 331,114 328,112 351,99 348,95 334,89 348,95 351,99 347,105 344,101 344,101 347,105 336,109 335,107 335,107 336,109 333,116 331,114 351,101 351,99 334,89 351,99 351,101 347,107 347,105 347,105 347,107 336,111 336,109 336,109 336,111 332,117 333,116 347,102 351,101 334,89 351,101 347,102 344,108 347,107 347,107 344,108 334,111 336,111 336,111 334,111 331,118 332,117 342,101 347,102 334,89 347,102 342,101 338,107 344,108 344,108 338,107 331,111 334,111 334,111 331,111 327,117 331,118 336,99 342,101 334,89 342,101 336,99 332,105 338,107 338,107 332,105 327,109 331,111 331,111 327,109 324,116 327,117 329,95 336,99 334,89 336,99 329,95 326,101 332,105 332,105 326,101 323,107 327,109 327,109 323,107 320,114 324,116 322,91 329,95 334,89 329,95 322,91 319,97 326,101 326,101 319,97 319,105 323,107 323,107 319,105 316,112 320,114 317,87 322,91 334,89 322,91 317,87 314,93 319,97 319,97 314,93 316,102 319,105 319,105 316,102 313,109 316,112 315,84 317,87 334,89 317,87 315,84 312,90 314,93 314,93 312,90 315,100 316,102 316,102 315,100 311,107 313,109 315,81 315,84 334,89 315,84 315,81 312,88 312,90 312,90 312,88 315,99 315,100 315,100 315,99 311,106 311,107 318,80 315,81 334,89 315,81 318,80 315,87 312,88 312,88 315,87 317,99 315,99 315,99 317,99 313,105 311,106 323,81 318,80 334,89 318,80 323,81 320,88 315,87 315,87 320,88 320,99 317,99 317,99 320,99 316,106 313,105 330,84 323,81 334,89 323,81 330,84 327,90 320,88 320,88 327,90 324,100 320,99 320,99 324,100 320,107 316,106 337,87 330,84 334,89 330,84 337,87 333,93 327,90 327,90 333,93 328,102 324,100 324,100 328,102 324,109 320,107 343,91 337,87 334,89 337,87 343,91 340,97 333,93 333,93 340,97 332,105 328,102 328,102 332,105 328,112 324,109 328,112 331,114 341,122 334,116 334,116 341,122 356,130 344,119 344,119 356,130 370,137 353,122 353,122 370,137 374,143 355,127 331,114 333,116 344,126 341,122 341,122 344,126 362,138 356,130 356,130 362,138 378,148 370,137 370,137 378,148 383,156 374,143 333,116 332,117 343,129 344,126 344,126 343,129 361,143 362,138 362,138 361,143 377,156 378,148 378,148 377,156 382,165 383,156 332,117 331,118 339,131 343,129 343,129 339,131 354,145 361,143 361,143 354,145 366,159 377,156 377,156 366,159 370,168 382,165 331,118 327,117 332,129 339,131 339,131 332,129 341,143 354,145 354,145 341,143 348,156 366,159 366,159 348,156 350,165 370,168 327,117 324,116 323,126 332,129 332,129 323,126 325,138 341,143 341,143 325,138 326,148 348,156 348,156 326,148 325,156 350,165 324,116 320,114 314,122 323,126 323,126 314,122 308,130 325,138 325,138 308,130 302,137 326,148 326,148 302,137 298,143 325,156 320,114 316,112 305,116 314,122 314,122 305,116 292,119 308,130 308,130 292,119 280,122 302,137 302,137 280,122 273,127 298,143 316,112 313,109 298,111 305,116 305,116 298,111 280,109 292,119 292,119 280,109 263,108 280,122 280,122 263,108 254,111 273,127 313,109 311,107 295,106 298,111 298,111 295,106 274,101 280,109 280,109 274,101 255,97 263,108 263,108 255,97 245,98 254,111 311,107 311,106 296,103 295,106 295,106 296,103 275,95 274,101 274,101 275,95 256,89 255,97 255,97 256,89 246,89 245,98 311,106 313,105 300,102 296,103 296,103 300,102 282,93 275,95 275,95 282,93 266,86 256,89 256,89 266,86 257,86 246,89 313,105 316,106 307,103 300,102 300,102 307,103 295,95 282,93 282,93 295,95 284,89 266,86 266,86 284,89 278,89 257,86 316,106 320,107 316,106 307,103 307,103 316,106 311,101 295,95 295,95 311,101 306,97 284,89 284,89 306,97 303,98 278,89 320,107 324,109 325,111 316,106 316,106 325,111 328,109 311,101 311,101 328,109 330,108 306,97 306,97 330,108 330,111 303,98 324,109 328,112 334,116 325,111 325,111 334,116 344,119 328,109 328,109 344,119 353,122 330,108 330,108 353,122 355,127 330,111 " stroke="darkred" stroke-width="0.2" fill="none" /></svg>