<svg xmlns="http://www.w3.org/2000/svg" version="1.1" width="500" height="500"> <polygon points="138,308 156,321 157,318 140,305 140,305 157,318 157,317 140,304 140,304 157,317 156,318 138,305 138,305 156,318 154,322 135,308 156,321 177,331 178,328 157,318 157,318 178,328 179,327 157,317 157,317 179,327 178,329 156,318 156,318 178,329 176,333 154,322 177,331 200,338 201,335 178,328 178,328 201,335 201,334 179,327 179,327 201,334 201,336 178,329 178,329 201,336 201,340 176,333 200,338 221,341 222,337 201,335 201,335 222,337 223,337 201,334 201,334 223,337 223,339 201,336 201,336 223,339 224,343 201,340 221,341 239,338 238,335 222,337 222,337 238,335 239,334 223,337 223,337 239,334 240,336 223,339 223,339 240,336 241,340 224,343 239,338 246,331 246,328 238,335 238,335 246,328 247,327 239,334 239,334 247,327 248,329 240,336 240,336 248,329 249,333 241,340 246,331 245,321 245,318 246,328 246,328 245,318 246,317 247,327 247,327 246,317 247,318 248,329 248,329 247,318 248,322 249,333 245,321 234,308 235,305 245,318 245,318 235,305 236,304 246,317 246,317 236,304 237,305 247,318 247,318 237,305 238,308 248,322 234,308 217,295 218,292 235,305 235,305 218,292 218,291 236,304 236,304 218,291 219,291 237,305 237,305 219,291 219,294 238,308 217,295 196,284 197,282 218,292 218,292 197,282 197,280 218,291 218,291 197,280 197,280 219,291 219,291 197,280 196,282 219,294 196,284 173,277 174,275 197,282 197,282 174,275 175,273 197,280 197,280 175,273 174,273 197,280 197,280 174,273 172,275 196,282 173,277 152,275 153,272 174,275 174,275 153,272 153,271 175,273 175,273 153,271 151,271 174,273 174,273 151,271 149,272 172,275 152,275 135,277 137,275 153,272 153,272 137,275 137,273 153,271 153,271 137,273 135,273 151,271 151,271 135,273 132,275 149,272 135,277 128,284 130,282 137,275 137,275 130,282 129,280 137,273 137,273 129,280 127,280 135,273 135,273 127,280 123,282 132,275 128,284 128,295 130,292 130,282 130,282 130,292 130,291 129,280 129,280 130,291 128,291 127,280 127,280 128,291 124,294 123,282 128,295 138,308 140,305 130,292 130,292 140,305 140,304 130,291 130,291 140,304 138,305 128,291 128,291 138,305 135,308 124,294 135,308 154,322 144,338 123,323 123,323 144,338 134,355 111,337 111,337 134,355 126,370 102,352 102,352 126,370 120,384 95,365 154,322 176,333 169,351 144,338 144,338 169,351 162,368 134,355 134,355 162,368 156,384 126,370 126,370 156,384 150,399 120,384 176,333 201,340 196,359 169,351 169,351 196,359 192,378 162,368 162,368 192,378 187,394 156,384 156,384 187,394 182,409 150,399 201,340 224,343 222,362 196,359 196,359 222,362 220,381 192,378 192,378 220,381 217,398 187,394 187,394 217,398 213,412 182,409 224,343 241,340 242,359 222,362 222,362 242,359 241,378 220,381 220,381 241,378 240,394 217,398 217,398 240,394 236,409 213,412 241,340 249,333 251,351 242,359 242,359 251,351 252,368 241,378 241,378 252,368 251,384 240,394 240,394 251,384 247,399 236,409 249,333 248,322 250,338 251,351 251,351 250,338 251,355 252,368 252,368 251,355 250,370 251,384 251,384 250,370 246,384 247,399 248,322 238,308 238,323 250,338 250,338 238,323 237,337 251,355 251,355 237,337 236,352 250,370 250,370 236,352 232,365 246,384 238,308 219,294 217,307 238,323 238,323 217,307 215,320 237,337 237,337 215,320 211,333 236,352 236,352 211,333 207,346 232,365 219,294 196,282 192,294 217,307 217,307 192,294 187,306 215,320 215,320 187,306 182,319 211,333 211,333 182,319 177,331 207,346 196,282 172,275 164,286 192,294 192,294 164,286 157,297 187,306 187,306 157,297 150,309 182,319 182,319 150,309 144,321 177,331 172,275 149,272 138,283 164,286 164,286 138,283 129,294 157,297 157,297 129,294 120,305 150,309 150,309 120,305 114,318 144,321 149,272 132,275 119,286 138,283 138,283 119,286 107,297 129,294 129,294 107,297 98,309 120,305 120,305 98,309 91,321 114,318 132,275 123,282 110,294 119,286 119,286 110,294 97,306 107,297 107,297 97,306 87,319 98,309 98,309 87,319 79,331 91,321 123,282 124,294 111,307 110,294 110,294 111,307 98,320 97,306 97,306 98,320 88,333 87,319 87,319 88,333 81,346 79,331 124,294 135,308 123,323 111,307 111,307 123,323 111,337 98,320 98,320 111,337 102,352 88,333 88,333 102,352 95,365 81,346 95,365 120,384 117,394 93,376 93,376 117,394 117,401 95,385 95,385 117,401 119,405 99,390 99,390 119,405 119,408 100,394 120,384 150,399 146,409 117,394 117,394 146,409 144,414 117,401 117,401 144,414 143,417 119,405 119,405 143,417 142,419 119,408 150,399 182,409 177,418 146,409 146,409 177,418 172,423 144,414 144,414 172,423 168,425 143,417 143,417 168,425 166,426 142,419 182,409 213,412 207,422 177,418 177,418 207,422 199,426 172,423 172,423 199,426 192,428 168,425 168,425 192,428 189,429 166,426 213,412 236,409 229,418 207,422 207,422 229,418 219,423 199,426 199,426 219,423 211,425 192,428 192,428 211,425 206,426 189,429 236,409 247,399 239,409 229,418 229,418 239,409 229,414 219,423 219,423 229,414 219,417 211,425 211,425 219,417 215,419 206,426 247,399 246,384 238,394 239,409 239,409 238,394 228,401 229,414 229,414 228,401 218,405 219,417 219,417 218,405 214,408 215,419 246,384 232,365 225,376 238,394 238,394 225,376 215,385 228,401 228,401 215,385 207,390 218,405 218,405 207,390 203,394 214,408 232,365 207,346 201,359 225,376 225,376 201,359 194,369 215,385 215,385 194,369 188,376 207,390 207,390 188,376 185,380 203,394 207,346 177,331 172,344 201,359 201,359 172,344 167,355 194,369 194,369 167,355 164,364 188,376 188,376 164,364 162,369 185,380 177,331 144,321 141,334 172,344 172,344 141,334 139,347 167,355 167,355 139,347 138,356 164,364 164,364 138,356 138,361 162,369 144,321 114,318 111,331 141,334 141,334 111,331 112,343 139,347 139,347 112,343 114,353 138,356 138,356 114,353 115,358 138,361 114,318 91,321 89,334 111,331 111,331 89,334 92,347 112,343 112,343 92,347 96,356 114,353 114,353 96,356 97,361 115,358 91,321 79,331 78,344 89,334 89,334 78,344 82,355 92,347 92,347 82,355 87,364 96,356 96,356 87,364 89,369 97,361 79,331 81,346 79,359 78,344 78,344 79,359 83,369 82,355 82,355 83,369 88,376 87,364 87,364 88,376 90,380 89,369 81,346 95,365 93,376 79,359 79,359 93,376 95,385 83,369 83,369 95,385 99,390 88,376 88,376 99,390 100,394 90,380 100,394 119,408 119,409 101,396 101,396 119,409 122,410 106,398 106,398 122,410 131,407 121,399 121,399 131,407 150,400 119,408 142,419 141,420 119,409 119,409 141,420 142,419 122,410 122,410 142,419 144,413 131,407 131,407 144,413 150,400 142,419 166,426 165,428 141,420 141,420 165,428 162,426 142,419 142,419 162,426 158,417 144,413 144,413 158,417 150,400 166,426 189,429 187,431 165,428 165,428 187,431 182,428 162,426 162,426 182,428 170,419 158,417 158,417 170,419 150,400 189,429 206,426 204,428 187,431 187,431 204,428 197,426 182,428 182,428 197,426 180,417 170,419 170,419 180,417 150,400 206,426 215,419 212,420 204,428 204,428 212,420 204,419 197,426 197,426 204,419 185,413 180,417 180,417 185,413 150,400 215,419 214,408 212,409 212,420 212,420 212,409 203,410 204,419 204,419 203,410 184,407 185,413 185,413 184,407 150,400 214,408 203,394 201,396 212,409 212,409 201,396 194,398 203,410 203,410 194,398 178,399 184,407 184,407 178,399 150,400 203,394 185,380 183,382 201,396 201,396 183,382 178,386 194,398 194,398 178,386 168,391 178,399 178,399 168,391 150,400 185,380 162,369 161,371 183,382 183,382 161,371 159,376 178,386 178,386 159,376 155,385 168,391 168,391 155,385 150,400 162,369 138,361 137,364 161,371 161,371 137,364 138,370 159,376 159,376 138,370 142,381 155,385 155,385 142,381 150,400 138,361 115,358 115,361 137,364 137,364 115,361 118,367 138,370 138,370 118,367 129,379 142,381 142,381 129,379 150,400 115,358 97,361 98,364 115,361 115,361 98,364 104,370 118,367 118,367 104,370 119,381 129,379 129,379 119,381 150,400 97,361 89,369 89,371 98,364 98,364 89,371 96,376 104,370 104,370 96,376 115,385 119,381 119,381 115,385 150,400 89,369 90,380 90,382 89,371 89,371 90,382 97,386 96,376 96,376 97,386 115,391 115,385 115,385 115,391 150,400 90,380 100,394 101,396 90,382 90,382 101,396 106,398 97,386 97,386 106,398 121,399 115,391 115,391 121,399 150,400 235,322 240,325 256,325 251,322 251,322 256,325 269,326 263,323 263,323 269,326 275,329 269,326 269,326 275,329 275,335 270,331 240,325 241,323 260,323 256,325 256,325 260,323 273,325 269,326 269,326 273,325 280,328 275,329 275,329 280,328 280,336 275,335 241,323 240,319 261,319 260,323 260,323 261,319 276,321 273,325 273,325 276,321 283,325 280,328 280,328 283,325 282,335 280,336 240,319 235,313 258,314 261,319 261,319 258,314 273,315 276,321 276,321 273,315 281,321 283,325 283,325 281,321 280,331 282,335 235,313 231,311 253,311 258,314 258,314 253,311 267,313 273,315 273,315 267,313 275,317 281,321 281,321 275,317 274,327 280,331 231,311 230,312 249,313 253,311 253,311 249,313 262,314 267,313 267,313 262,314 269,318 275,317 275,317 269,318 269,325 274,327 230,312 231,317 248,317 249,313 249,313 248,317 260,318 262,314 262,314 260,318 267,321 269,318 269,318 267,321 267,327 269,325 231,317 235,322 251,322 248,317 248,317 251,322 263,323 260,318 260,318 263,323 269,326 267,321 267,321 269,326 270,331 267,327 270,331 275,335 270,343 265,338 265,338 270,343 262,353 257,348 257,348 262,353 250,363 246,357 246,357 250,363 235,371 232,365 275,335 280,336 274,346 270,343 270,343 274,346 265,357 262,353 262,353 265,357 251,367 250,363 250,363 251,367 233,376 235,371 280,336 282,335 276,346 274,346 274,346 276,346 264,358 265,357 265,357 264,358 249,369 251,367 251,367 249,369 229,379 233,376 282,335 280,331 272,343 276,346 276,346 272,343 261,355 264,358 264,358 261,355 245,366 249,369 249,369 245,366 224,377 229,379 280,331 274,327 267,338 272,343 272,343 267,338 256,350 261,355 261,355 256,350 241,361 245,366 245,366 241,361 221,371 224,377 274,327 269,325 263,335 267,338 267,338 263,335 253,346 256,350 256,350 253,346 240,356 241,361 241,361 240,356 222,365 221,371 269,325 267,327 262,335 263,335 263,335 262,335 253,345 253,346 253,346 253,345 241,355 240,356 240,356 241,355 226,363 222,365 267,327 270,331 265,338 262,335 262,335 265,338 257,348 253,345 253,345 257,348 246,357 241,355 241,355 246,357 232,365 226,363 113,345 120,359 104,352 98,341 98,341 104,352 99,339 95,331 95,331 99,339 99,323 96,318 96,318 99,323 94,311 94,308 120,359 119,372 101,363 104,352 104,352 101,363 96,345 99,339 99,339 96,345 95,326 99,323 99,323 95,326 88,312 94,311 119,372 112,380 92,368 101,363 101,363 92,368 88,348 96,345 96,345 88,348 89,327 95,326 95,326 89,327 80,311 88,312 112,380 101,377 81,364 92,368 92,368 81,364 80,344 88,348 88,348 80,344 82,323 89,327 89,327 82,323 73,308 80,311 101,377 93,363 75,353 81,364 81,364 75,353 76,336 80,344 80,344 76,336 80,318 82,323 82,323 80,318 73,304 73,308 93,363 95,349 79,342 75,353 75,353 79,342 79,329 76,336 76,336 79,329 83,315 80,318 80,318 83,315 79,303 73,304 95,349 102,341 87,336 79,342 79,342 87,336 87,327 79,329 79,329 87,327 90,315 83,315 83,315 90,315 87,304 79,303 102,341 113,345 98,341 87,336 87,336 98,341 95,331 87,327 87,327 95,331 96,318 90,315 90,315 96,318 94,308 87,304 94,308 94,311 92,309 92,306 92,306 92,309 90,308 90,305 90,305 90,308 89,308 90,306 90,306 89,308 90,310 90,308 94,311 88,312 86,310 92,309 92,309 86,310 84,309 90,308 90,308 84,309 84,309 89,308 89,308 84,309 86,310 90,310 88,312 80,311 77,309 86,310 86,310 77,309 76,307 84,309 84,309 76,307 78,308 84,309 84,309 78,308 81,310 86,310 80,311 73,308 70,305 77,309 77,309 70,305 70,305 76,307 76,307 70,305 72,305 78,308 78,308 72,305 77,308 81,310 73,308 73,304 70,302 70,305 70,305 70,302 71,302 70,305 70,305 71,302 73,303 72,305 72,305 73,303 77,306 77,308 73,304 79,303 77,302 70,302 70,302 77,302 77,301 71,302 71,302 77,301 78,303 73,303 73,303 78,303 81,305 77,306 79,303 87,304 85,303 77,302 77,302 85,303 85,303 77,301 77,301 85,303 85,304 78,303 78,303 85,304 86,306 81,305 87,304 94,308 92,306 85,303 85,303 92,306 90,305 85,303 85,303 90,305 90,306 85,304 85,304 90,306 90,308 86,306 190,284 185,281 198,279 185,281 190,284 188,288 184,285 184,285 188,288 189,293 186,291 186,291 189,293 187,298 184,296 195,286 190,284 198,279 190,284 195,286 193,291 188,288 188,288 193,291 192,294 189,293 189,293 192,294 190,299 187,298 200,288 195,286 198,279 195,286 200,288 198,292 193,291 193,291 198,292 195,295 192,294 192,294 195,295 193,300 190,299 206,289 200,288 198,279 200,288 206,289 203,293 198,292 198,292 203,293 198,296 195,295 195,295 198,296 196,301 193,300 209,288 206,289 198,279 206,289 209,288 207,292 203,293 203,293 207,292 200,295 198,296 198,296 200,295 198,300 196,301 211,286 209,288 198,279 209,288 211,286 209,291 207,292 207,292 209,291 201,294 200,295 200,295 201,294 199,299 198,300 211,284 211,286 198,279 211,286 211,284 209,288 209,291 209,291 209,288 201,293 201,294 201,294 201,293 199,298 199,299 209,281 211,284 198,279 211,284 209,281 206,285 209,288 209,288 206,285 200,291 201,293 201,293 200,291 198,296 199,298 205,278 209,281 198,279 209,281 205,278 202,282 206,285 206,285 202,282 197,289 200,291 200,291 197,289 195,294 198,296 199,275 205,278 198,279 205,278 199,275 197,280 202,282 202,282 197,280 194,288 197,289 197,289 194,288 192,293 195,294 194,273 199,275 198,279 199,275 194,273 192,278 197,280 197,280 192,278 191,287 194,288 194,288 191,287 189,292 192,293 189,273 194,273 198,279 194,273 189,273 187,278 192,278 192,278 187,278 188,286 191,287 191,287 188,286 186,291 189,292 185,273 189,273 198,279 189,273 185,273 183,278 187,278 187,278 183,278 186,287 188,286 188,286 186,287 184,292 186,291 183,275 185,273 198,279 185,273 183,275 182,280 183,278 183,278 182,280 185,288 186,287 186,287 185,288 183,293 184,292 183,278 183,275 198,279 183,275 183,278 182,282 182,280 182,280 182,282 185,289 185,288 185,288 185,289 183,294 183,293 185,281 183,278 198,279 183,278 185,281 184,285 182,282 182,282 184,285 186,291 185,289 185,289 186,291 184,296 183,294 184,296 187,298 180,304 174,300 174,300 180,304 171,310 160,302 160,302 171,310 162,315 148,304 148,304 162,315 158,320 142,308 187,298 190,299 187,307 180,304 180,304 187,307 183,316 171,310 171,310 183,316 180,324 162,315 162,315 180,324 178,329 158,320 190,299 193,300 194,309 187,307 187,307 194,309 196,320 183,316 183,316 196,320 199,329 180,324 180,324 199,329 199,336 178,329 193,300 196,301 201,310 194,309 194,309 201,310 209,321 196,320 196,320 209,321 216,332 199,329 199,329 216,332 219,338 199,336 196,301 198,300 206,309 201,310 201,310 206,309 219,320 209,321 209,321 219,320 230,329 216,332 216,332 230,329 234,336 219,338 198,300 199,299 209,307 206,309 206,309 209,307 223,316 219,320 219,320 223,316 236,324 230,329 230,329 236,324 241,329 234,336 199,299 199,298 208,304 209,307 209,307 208,304 223,310 223,316 223,316 223,310 235,315 236,324 236,324 235,315 240,320 241,329 199,298 198,296 205,300 208,304 208,304 205,300 217,302 223,310 223,310 217,302 227,304 235,315 235,315 227,304 231,308 240,320 198,296 195,294 200,295 205,300 205,300 200,295 207,294 217,302 217,302 207,294 213,293 227,304 227,304 213,293 215,296 231,308 195,294 192,293 193,292 200,295 200,295 193,292 194,288 207,294 207,294 194,288 195,285 213,293 213,293 195,285 195,286 215,296 192,293 189,292 185,290 193,292 193,292 185,290 181,284 194,288 194,288 181,284 177,279 195,285 195,285 177,279 174,279 195,286 189,292 186,291 178,289 185,290 185,290 178,289 168,282 181,284 181,284 168,282 159,277 177,279 177,279 159,277 154,277 174,279 186,291 184,292 173,290 178,289 178,289 173,290 159,284 168,282 168,282 159,284 146,279 159,277 159,277 146,279 139,279 154,277 184,292 183,293 170,292 173,290 173,290 170,292 154,288 159,284 159,284 154,288 139,285 146,279 146,279 139,285 132,286 139,279 183,293 183,294 171,295 170,292 170,292 171,295 155,294 154,288 154,288 155,294 140,293 139,285 139,285 140,293 133,296 132,286 183,294 184,296 174,300 171,295 171,295 174,300 160,302 155,294 155,294 160,302 148,304 140,293 140,293 148,304 142,308 133,296 " stroke="darkred" stroke-width="0.2" fill="blue" /></svg>