<svg xmlns="http://www.w3.org/2000/svg" version="1.1" width="500" height="500"> <polygon points="256,237 256,248 256,238 256,227 256,227 256,238 243,238 243,227 243,227 243,238 243,248 243,237 243,237 243,248 256,248 256,237 256,248 243,248 243,238 256,238 243,237 256,237 256,227 243,227 257,226 257,239 257,231 257,218 257,218 257,231 242,231 242,218 242,218 242,231 242,239 242,226 242,226 242,239 257,239 257,226 257,239 242,239 242,231 257,231 242,226 257,226 257,218 242,218 250,225 250,224 251,224 251,225 252,224 252,224 251,224 252,223 252,222 253,223 252,222 252,222 251,221 252,221 251,221 251,221 249,220 250,220 250,220 249,220 248,221 249,220 249,220 248,221 247,222 247,221 247,221 247,222 247,224 246,223 247,222 247,223 248,225 247,224 247,224 248,224 249,225 249,225 249,224 249,225 247,222 248,221 248,221 248,221 249,221 251,221 251,221 249,221 246,223 246,223 247,222 247,222 251,221 251,222 252,222 252,222 252,225 253,224 253,225 252,226 253,223 253,223 253,223 253,224 251,226 251,226 251,227 251,226 246,223 246,224 246,225 246,224 248,226 249,226 249,227 248,227 247,226 247,225 248,226 247,226 248,221 247,222 247,222 248,222 251,221 249,221 249,221 251,222 247,222 246,223 246,224 247,223 252,222 251,222 252,222 252,223 252,226 253,225 253,225 252,226 253,224 253,223 253,224 253,224 251,227 251,226 252,227 251,227 246,224 246,225 246,225 246,224 248,227 249,227 249,228 248,227 247,226 247,226 247,227 247,226 249,224 249,224 249,225 249,224 248,223 248,223 248,224 247,224 248,222 248,223 247,223 247,222 248,221 248,222 247,222 247,221 249,221 248,221 248,221 249,220 250,221 249,221 249,220 250,220 251,221 250,221 251,221 251,221 251,222 251,222 252,222 252,222 251,223 251,223 252,223 251,224 250,224 250,223 251,224 250,224 246,223 246,224 246,224 246,224 246,223 246,223 246,224 246,223 247,222 246,223 247,222 247,222 248,222 248,222 247,222 247,222 247,222 247,222 247,223 247,222 247,222 247,222 247,222 248,221 247,221 247,221 248,221 248,221 248,221 248,221 247,221 248,221 249,221 248,221 248,222 249,221 248,221 248,221 249,221 249,221 249,220 249,220 249,220 249,220 249,221 249,221 249,220 249,220 251,222 251,221 251,222 252,222 251,221 251,221 251,222 251,221 250,220 250,220 251,221 251,221 250,221 250,221 250,220 251,221 253,223 252,222 252,223 253,224 253,223 252,222 252,222 253,223 251,221 252,221 252,222 252,222 251,222 251,221 251,221 252,222 253,225 253,224 253,224 253,225 253,224 253,223 253,224 253,225 252,222 253,223 252,224 252,223 251,223 251,222 252,222 252,223 251,226 252,226 252,226 252,227 251,226 252,225 252,226 251,226 251,224 252,224 251,225 251,224 250,223 251,223 251,224 251,224 249,227 251,227 251,227 249,228 251,226 251,227 249,227 249,226 249,225 249,225 250,224 250,225 249,224 250,224 250,224 249,225 247,226 248,227 248,227 247,227 248,226 248,226 248,227 247,226 249,224 249,225 248,225 248,224 248,223 249,224 249,224 248,224 246,225 247,226 247,226 246,225 246,225 246,224 247,225 247,226 247,224 247,224 247,224 247,223 248,223 248,223 247,224 247,223 249,222 249,222 249,222 249,222 249,222 249,222 250,222 250,222 250,222 250,222 250,222 250,222 250,222 250,222 250,222 249,222 249,222 249,222 249,222 249,222 251,221 251,221 252,222 252,221 250,220 251,221 251,221 251,221 249,221 251,221 250,220 249,220 249,220 248,221 249,221 249,220 248,221 248,221 249,220 248,221 247,221 247,222 248,221 248,221 247,222 246,223 247,222 247,221 247,222 246,223 246,223 246,223 246,223 247,224 246,224 246,223 247,225 246,224 247,224 247,224 248,226 247,225 247,224 248,225 248,225 249,225 248,226 248,226 249,225 249,225 249,226 248,226 250,225 251,226 249,226 249,225 251,225 251,226 251,226 250,225 251,225 252,224 252,225 251,226 252,224 252,224 253,224 252,225 252,224 253,223 253,223 253,224 253,223 252,222 253,223 253,223 252,221 252,222 253,223 252,222 248,222 247,222 247,222 248,221 251,222 249,221 249,221 251,221 247,223 246,224 246,224 246,223 252,223 252,222 252,222 253,223 252,226 253,225 253,226 253,226 253,224 253,224 253,224 253,225 251,227 252,227 252,227 251,228 246,224 246,225 246,226 246,225 248,227 249,228 249,228 248,228 247,226 247,227 247,227 246,226 251,228 252,227 252,227 251,228 248,228 249,228 249,228 248,228 246,226 247,227 247,227 246,226 246,225 246,226 246,225 245,224 246,223 246,224 246,223 246,222 248,221 247,222 247,221 248,221 251,221 249,221 249,221 251,221 253,223 252,222 252,221 253,222 253,225 253,224 253,223 254,224 253,226 253,226 253,225 253,226 254,224 253,223 254,223 254,224 253,226 253,225 254,225 253,226 251,228 252,227 252,227 251,228 248,228 249,228 249,228 248,228 246,226 247,227 247,227 246,226 245,224 246,225 245,225 245,224 246,222 246,223 245,223 246,222 248,221 247,221 247,221 248,220 251,221 249,221 249,220 251,220 253,222 252,221 252,221 253,222 254,224 254,223 254,223 254,224 253,226 254,225 254,225 253,226 251,228 252,227 252,227 251,228 248,228 249,228 249,228 248,228 246,226 247,227 247,227 246,226 245,224 245,225 245,225 245,224 246,222 245,223 245,223 246,222 248,220 247,221 247,221 248,220 251,220 249,220 249,220 251,220 253,222 252,221 252,221 253,222 254,224 254,223 254,223 254,224 253,226 254,225 254,226 253,227 251,228 252,227 252,228 251,228 248,228 249,228 249,228 248,228 246,226 247,227 247,228 246,227 245,224 245,225 245,226 245,224 246,222 245,223 245,223 246,222 248,220 247,221 247,221 248,220 251,220 249,220 249,220 251,220 253,222 252,221 252,221 253,222 254,224 254,223 254,223 254,225 253,227 254,226 254,226 253,227 251,228 252,228 252,228 251,228 248,228 249,228 249,229 248,228 246,227 247,228 247,228 246,227 245,224 245,226 245,226 245,225 246,222 245,223 245,223 246,222 248,220 247,221 247,221 248,221 251,220 249,220 249,220 251,221 253,222 252,221 252,221 253,222 254,225 254,223 254,224 254,225 253,227 254,226 254,226 253,227 251,228 252,228 252,228 251,228 248,228 249,229 249,228 248,228 246,227 247,228 247,228 246,227 245,225 245,226 245,226 245,225 246,222 245,223 245,224 246,223 248,221 247,221 247,222 248,221 251,221 249,220 249,221 251,221 253,222 252,221 252,222 253,223 248,228 249,228 249,228 248,227 246,227 247,228 248,227 247,226 245,225 245,226 246,226 246,225 246,223 245,224 246,224 247,223 248,221 247,222 248,223 248,222 251,221 249,221 249,222 251,222 253,223 252,222 251,223 252,223 254,225 254,224 253,224 253,225 253,227 254,226 253,226 252,226 251,228 252,228 251,227 251,227 245,224 245,225 246,225 246,224 245,223 245,225 245,225 245,224 245,223 245,224 245,225 245,223 245,223 245,224 245,224 245,223 245,223 245,224 245,224 245,223 246,223 245,224 245,224 245,223 246,224 246,225 245,224 246,223 246,224 246,224 246,225 246,224 247,222 246,223 247,223 248,223 247,221 246,222 246,223 247,222 247,221 246,222 246,222 247,221 247,221 246,222 246,222 247,221 247,221 246,222 246,222 247,221 247,221 246,222 246,222 247,221 247,222 246,223 246,222 247,221 247,222 247,223 246,223 247,222 249,221 248,221 248,222 249,222 249,220 248,221 248,221 249,221 249,220 248,220 248,221 249,220 249,220 248,220 248,220 249,220 249,220 248,220 248,220 249,220 249,221 248,221 248,220 249,220 249,221 248,221 248,221 249,221 249,221 248,222 248,221 249,221 252,222 251,221 251,222 251,223 252,221 251,221 251,221 252,222 252,221 251,220 251,221 252,221 252,221 251,220 251,220 252,221 252,221 251,220 251,220 252,221 252,221 251,221 251,220 252,221 252,222 251,221 251,221 252,221 252,222 251,222 251,221 252,222 254,224 253,223 252,223 253,224 254,223 253,222 253,223 254,224 254,223 253,222 253,222 254,223 254,223 253,222 253,222 254,223 254,223 253,222 253,222 254,223 253,223 253,222 253,222 254,223 253,224 253,223 253,222 253,223 253,224 252,223 253,223 253,224 254,226 254,225 253,225 253,226 254,226 254,225 254,225 254,226 254,226 254,224 254,225 254,226 254,225 254,224 254,224 254,226 254,225 254,224 254,224 254,225 253,225 254,224 254,224 254,225 253,226 253,225 254,224 253,225 253,225 253,224 253,225 253,226 252,228 253,227 252,226 251,227 252,228 253,227 253,227 252,228 252,228 253,227 253,227 252,228 252,227 253,226 253,227 252,228 252,227 253,226 253,226 252,227 252,227 253,226 253,226 252,227 252,227 253,226 253,226 252,227 252,227 252,226 253,226 252,227 249,228 251,228 251,227 249,228 249,229 251,228 251,228 249,228 249,228 251,228 251,228 249,229 249,228 251,228 251,228 249,228 249,228 251,228 251,228 249,228 249,228 251,228 251,228 249,228 249,228 251,228 251,228 249,228 249,228 251,227 251,228 249,228 247,228 248,228 248,227 248,227 247,228 248,228 248,228 247,228 247,228 248,228 248,228 247,228 247,227 248,228 248,228 247,228 247,227 248,228 248,228 247,227 247,227 248,228 248,228 247,227 247,227 248,228 248,228 247,227 247,227 248,227 248,228 247,227 245,226 246,227 247,226 246,226 245,226 246,227 246,227 245,226 245,226 246,227 246,227 245,226 245,225 246,226 246,227 245,226 245,225 246,226 246,226 245,225 246,225 246,226 246,226 245,225 246,226 246,226 246,226 246,225 246,225 247,226 246,226 246,226 249,222 249,222 248,222 248,222 249,222 249,222 248,222 248,221 249,222 249,222 248,221 248,221 249,222 249,222 248,221 249,221 249,222 249,222 249,221 249,221 250,222 249,222 249,221 250,221 250,222 250,222 250,221 250,221 250,222 250,222 250,221 251,221 250,222 250,222 251,221 251,222 250,222 250,222 251,222 251,222 250,222 250,222 251,222 251,223 250,222 250,222 251,223 251,223 250,222 250,222 251,223 250,223 250,222 250,222 250,223 250,224 249,222 250,222 250,224 249,224 249,222 249,222 249,224 249,224 249,222 249,222 249,224 248,223 249,222 249,222 248,223 248,223 249,222 249,222 248,223 248,223 249,222 249,222 248,223 248,222 242,240 242,243 242,236 242,232 242,232 242,236 238,236 238,232 238,232 238,236 238,243 238,240 238,240 238,243 242,243 242,240 242,243 238,243 238,236 242,236 238,240 242,240 242,232 238,232 257,240 257,232 257,236 257,243 257,232 261,232 261,236 257,236 261,232 261,240 261,243 261,236 261,240 257,240 257,243 261,243 257,243 257,236 261,236 261,243 261,240 261,232 257,232 257,240 248,248 248,252 248,244 248,241 248,241 248,244 244,244 244,241 244,241 244,244 244,252 244,248 244,248 244,252 248,252 248,248 248,252 244,252 244,244 248,244 244,248 248,248 248,241 244,241 251,248 251,241 251,244 251,252 251,241 255,241 255,244 251,244 255,241 255,248 255,252 255,244 255,248 251,248 251,252 255,252 251,252 251,244 255,244 255,252 255,248 255,241 251,241 251,248 " stroke="darkred" stroke-width="0.2" fill="none" /></svg>